# xmcd
#
# Track frame offsets:
#	150
#	21822
#	38669
#	55175
#	71633
#	137427
#	161118
#	165696
#
# Disc length: 3428 seconds
#
# Revision: 1
# Processed by: cddbd v1.5.2PL0 Copyright (c) Steve Scherf et al.
# Submitted via: audiograbber 1.83.01
#
DISCID=640d6208
DTITLE=EVILMRSOD and KEIKO - SUNDAY
DYEAR=2008
DGENRE=Blues
TTITLE0=BIGGER THAN LIFE
TTITLE1=LOSER´ ROAD
TTITLE2=WHAT A SHAME 
TTITLE3=I M A MESS 
TTITLE4=FROM THESE COLD STREETS 
TTITLE5=THE DUST
TTITLE6=LA GROTTA E IL VENTO 
TTITLE7=I DONT GIVE A FUCK (GOOD LORD)
EXTD=
EXTT0=
EXTT1=
EXTT2=
EXTT3=
EXTT4=
EXTT5=
EXTT6=
EXTT7=
PLAYORDER=
